<?xml version="1.0" standalone="no"?>
<!DOCTYPE svg PUBLIC "-//W3C//DTD SVG 20010904//EN"
 "http://www.w3.org/TR/2001/REC-SVG-20010904/DTD/svg10.dtd">
<svg version="1.0" xmlns="http://www.w3.org/2000/svg"
 width="276.000000pt" height="280.000000pt" viewBox="0 0 276.000000 280.000000"
 preserveAspectRatio="xMidYMid meet">

<g transform="translate(0.000000,280.000000) scale(0.100000,-0.100000)"
fill="#000000" stroke="none">
<path d="M460 2714 c-125 -34 -280 -154 -332 -259 -63 -125 -63 -127 -63 -530
0 -361 1 -372 23 -437 46 -132 132 -233 257 -303 119 -67 87 -65 1050 -65 959
0 926 -2 1049 63 80 41 194 155 230 228 53 110 56 135 56 516 0 344 -1 354
-24 428 -13 41 -38 96 -54 122 -67 104 -189 196 -311 233 -61 19 -96 20 -945
19 -742 0 -890 -3 -936 -15z m1081 -510 c186 -60 244 -318 104 -459 -59 -58
-126 -85 -216 -85 -104 0 -162 22 -225 85 -64 64 -89 130 -82 219 6 72 26 116
77 169 84 89 207 115 342 71z m621 0 c26 -9 50 -19 53 -24 3 -4 -4 -29 -15
-55 -16 -38 -24 -46 -38 -40 -87 37 -145 42 -198 20 -31 -13 -35 -18 -32 -47
3 -32 4 -33 112 -64 59 -18 120 -38 134 -45 56 -30 80 -125 47 -188 -19 -38
-66 -77 -111 -91 -57 -19 -208 -8 -271 19 -58 26 -60 31 -38 85 17 40 24 42
63 22 15 -8 54 -19 88 -26 81 -16 141 -1 150 37 10 38 -18 56 -123 82 -130 33
-174 66 -188 143 -7 37 13 98 43 131 57 63 200 81 324 41z m-1220 -17 c66 -32
98 -76 106 -142 7 -65 -5 -111 -40 -151 -49 -55 -81 -67 -198 -73 l-105 -6 -5
-75 -5 -75 -60 0 -60 0 -3 265 c-1 146 0 271 3 278 4 11 35 13 158 11 142 -4
156 -6 209 -32z"/>
<path d="M1336 2088 c-54 -31 -78 -75 -78 -142 -1 -112 71 -182 180 -173 56 4
91 24 126 71 30 39 30 153 0 192 -36 49 -70 67 -131 71 -47 3 -66 -1 -97 -19z"/>
<path d="M707 2103 c-4 -3 -7 -44 -7 -90 l0 -83 79 0 c63 0 83 4 104 20 53 42
39 127 -24 149 -35 12 -142 15 -152 4z"/>
<path d="M695 916 c-67 -29 -105 -106 -91 -182 9 -43 72 -109 114 -119 23 -5
38 -19 57 -51 14 -24 53 -73 86 -109 209 -223 542 -279 826 -138 88 43 204
147 263 236 23 33 58 76 79 94 49 41 65 80 59 142 -9 88 -80 147 -170 139
-118 -12 -180 -124 -125 -231 l25 -47 -28 -38 c-180 -247 -557 -279 -781 -65
-78 74 -115 134 -100 162 18 32 13 100 -10 141 -39 69 -130 98 -204 66z"/>
</g>
</svg>
